<svg xmlns="http://www.w3.org/2000/svg" xmlns:xlink="http://www.w3.org/1999/xlink" width="500" zoomAndPan="magnify" viewBox="0 0 375 374.999991" height="500" preserveAspectRatio="xMidYMid meet" version="1.0"><defs><g/><clipPath id="4b74e853ac"><path d="M 112.378906 36 L 262.378906 36 L 262.378906 221.03125 L 112.378906 221.03125 Z M 112.378906 36 " clip-rule="nonzero"/></clipPath><clipPath id="71e63b4c1c"><path d="M 163 7.28125 L 212 7.28125 L 212 42 L 163 42 Z M 163 7.28125 " clip-rule="nonzero"/></clipPath></defs><rect x="-37.5" width="450" fill="#ffffff" y="-37.499999" height="449.999989" fill-opacity="1"/><rect x="-37.5" width="450" fill="#ffffff" y="-37.499999" height="449.999989" fill-opacity="1"/><rect x="-37.5" width="450" fill="#ffffff" y="-37.499999" height="449.999989" fill-opacity="1"/><g clip-path="url(#4b74e853ac)"><path fill="#a0c3d2" d="M 261.96875 191.621094 L 242.339844 74.597656 C 240.515625 62.113281 229.628906 52.710938 217.035156 52.710938 L 162.894531 52.710938 L 162.894531 58.007812 L 217.035156 58.007812 C 227.027344 58.007812 235.667969 65.480469 237.132812 75.378906 L 256.746094 192.398438 C 257.617188 198.257812 255.878906 204.195312 252.03125 208.675781 C 248.171875 213.160156 242.574219 215.742188 236.664062 215.742188 L 138.105469 215.742188 C 137.355469 215.742188 136.589844 215.703125 135.839844 215.601562 C 134.285156 215.445312 132.78125 215.066406 131.316406 214.5625 C 130.292969 216.066406 129.296875 217.574219 128.285156 219.070312 C 129.699219 219.667969 131.164062 220.132812 132.652344 220.445312 C 134.429688 220.847656 136.269531 221.042969 138.105469 221.042969 L 236.652344 221.042969 C 244.101562 221.042969 251.164062 217.796875 256.023438 212.144531 C 260.90625 206.480469 263.070312 199 261.96875 191.621094 Z M 125.164062 211.054688 C 124.296875 210.328125 123.492188 209.535156 122.726562 208.675781 C 118.855469 204.195312 117.144531 198.257812 118.011719 192.398438 L 137.628906 59.492188 C 139.09375 49.589844 147.734375 42.121094 157.722656 42.121094 L 211.570312 42.121094 L 211.570312 36.820312 L 157.722656 36.820312 C 145.128906 36.820312 134.246094 46.226562 132.40625 58.710938 L 112.777344 191.621094 C 111.691406 199 113.851562 206.480469 118.726562 212.132812 C 119.789062 213.367188 120.964844 214.496094 122.210938 215.46875 C 123.324219 216.367188 124.476562 217.144531 125.707031 217.820312 L 128.699219 213.429688 C 127.445312 212.769531 126.265625 211.976562 125.164062 211.054688 Z M 125.164062 211.054688 " fill-opacity="1" fill-rule="nonzero"/></g><g clip-path="url(#71e63b4c1c)"><path fill="#a0c3d2" d="M 211.554688 41.835938 L 163.191406 41.835938 L 163.191406 27.765625 C 163.191406 16.035156 175.523438 7.28125 186.550781 7.28125 C 210.183594 7.28125 211.542969 28.949219 211.554688 29.15625 Z M 168.476562 36.535156 L 206.269531 36.535156 L 206.269531 29.285156 C 206.230469 28.742188 205.089844 12.566406 186.539062 12.566406 C 178.179688 12.566406 168.476562 19.207031 168.476562 27.753906 Z M 168.476562 36.535156 " fill-opacity="1" fill-rule="nonzero"/></g><path fill="#a0c3d2" d="M 162.363281 165.171875 L 154.964844 208.09375 L 147.746094 197.53125 L 135.828125 215.585938 L 132.640625 220.421875 C 131.148438 220.109375 129.6875 219.640625 128.273438 219.042969 C 129.269531 217.5625 130.28125 216.042969 131.304688 214.535156 C 138.070312 204.453125 144.535156 194.828125 145.324219 193.738281 C 147.566406 190.582031 149.390625 193.101562 149.390625 193.101562 L 152.242188 198.0625 L 155.714844 174.757812 L 136.683594 187.605469 C 136.683594 187.605469 137.898438 187.539062 141.179688 187.761719 C 144.46875 187.996094 143.339844 191.839844 143.339844 191.839844 L 128.726562 213.390625 L 125.734375 217.78125 C 124.503906 217.105469 123.335938 216.339844 122.234375 215.429688 L 125.175781 211.015625 L 138.042969 191.828125 L 127.199219 188.191406 Z M 162.363281 165.171875 " fill-opacity="1" fill-rule="nonzero"/><path fill="#a0c3d2" d="M 160.808594 191.140625 L 160.210938 185.878906 C 163.65625 185.488281 166.753906 183.773438 168.917969 181.046875 C 171.082031 178.316406 172.054688 174.914062 171.664062 171.457031 C 171.277344 168.003906 169.566406 164.898438 166.84375 162.726562 C 164.136719 160.558594 160.742188 159.585938 157.28125 159.972656 C 150.167969 160.78125 145.027344 167.25 145.828125 174.394531 L 140.582031 174.992188 C 140.039062 170.132812 141.398438 165.339844 144.441406 161.507812 C 147.488281 157.675781 151.828125 155.257812 156.6875 154.710938 C 161.546875 154.152344 166.3125 155.53125 170.136719 158.585938 C 173.957031 161.636719 176.355469 165.988281 176.910156 170.859375 C 177.46875 175.71875 176.09375 180.511719 173.050781 184.34375 C 169.992188 188.164062 165.652344 190.582031 160.808594 191.140625 Z M 160.808594 191.140625 " fill-opacity="1" fill-rule="nonzero"/><g fill="#545454" fill-opacity="1"><g transform="translate(4.783798, 309.113235)"><g><path d="M 41.316406 -53.046875 L 41.316406 -58.652344 L 6.46875 -58.652344 L 6.46875 0 L 12.507812 0 L 12.507812 -26.480469 L 40.453125 -26.480469 L 40.453125 -32.171875 L 12.507812 -32.171875 L 12.507812 -53.046875 Z M 41.316406 -53.046875 "/></g></g></g><g fill="#545454" fill-opacity="1"><g transform="translate(47.812364, 309.113235)"><g><path d="M 36.65625 -18.976562 C 36.65625 -15.265625 35.363281 -11.988281 32.777344 -9.316406 C 30.1875 -6.554688 26.996094 -5.175781 23.289062 -5.175781 C 19.492188 -5.175781 16.300781 -6.554688 13.714844 -9.316406 C 11.125 -11.988281 9.917969 -15.265625 9.917969 -18.976562 C 9.917969 -22.597656 11.125 -25.875 13.714844 -28.636719 C 16.300781 -31.394531 19.492188 -32.777344 23.289062 -32.777344 C 26.996094 -32.777344 30.1875 -31.394531 32.777344 -28.636719 C 35.363281 -25.875 36.65625 -22.597656 36.65625 -18.976562 Z M 42.695312 0 L 42.695312 -37.953125 L 36.65625 -37.953125 L 36.65625 -31.394531 C 36.3125 -31.914062 35.882812 -32.34375 35.535156 -32.777344 C 31.914062 -36.742188 27.515625 -38.8125 22.339844 -38.8125 C 17.078125 -38.8125 12.679688 -36.742188 9.054688 -32.777344 C 5.605469 -28.808594 3.882812 -24.238281 3.882812 -18.976562 C 3.882812 -13.628906 5.605469 -9.054688 9.054688 -5.175781 C 12.679688 -1.121094 17.078125 0.863281 22.339844 0.863281 C 27.515625 0.863281 31.914062 -1.121094 35.535156 -5.175781 C 35.882812 -5.519531 36.3125 -5.953125 36.65625 -6.46875 L 36.65625 0 Z M 42.695312 0 "/></g></g></g><g fill="#545454" fill-opacity="1"><g transform="translate(96.963234, 309.113235)"><g><path d="M 12.507812 0 L 12.507812 -18.199219 L 27.429688 0 L 35.449219 0 L 18.804688 -19.578125 L 34.414062 -38.039062 L 26.394531 -38.039062 L 12.507812 -20.875 L 12.507812 -64.691406 L 6.46875 -64.691406 L 6.46875 0 Z M 12.507812 0 "/></g></g></g><g fill="#545454" fill-opacity="1"><g transform="translate(133.265884, 309.113235)"><g><path d="M 43.558594 -19.839844 C 43.558594 -25.011719 41.488281 -29.5 37.519531 -33.378906 C 33.640625 -37.089844 28.980469 -38.988281 23.71875 -38.988281 C 18.199219 -38.988281 13.542969 -37.003906 9.660156 -33.121094 C 5.777344 -29.238281 3.882812 -24.582031 3.882812 -19.148438 C 3.882812 -13.628906 5.777344 -8.96875 9.660156 -5.175781 C 11.472656 -3.363281 13.542969 -1.984375 15.957031 -0.949219 C 18.371094 0.0859375 21.21875 0.605469 24.582031 0.605469 C 27.945312 0.605469 31.222656 -0.429688 34.5 -2.5 C 37.777344 -4.570312 40.195312 -7.503906 41.832031 -11.125 L 34.933594 -11.125 C 33.550781 -9.316406 31.914062 -7.933594 29.929688 -6.898438 C 27.945312 -5.867188 25.875 -5.433594 23.71875 -5.433594 C 20.441406 -5.433594 17.507812 -6.46875 14.921875 -8.625 C 12.335938 -10.695312 10.695312 -13.371094 10.179688 -16.648438 L 43.558594 -16.648438 Z M 37.175781 -21.820312 L 10.265625 -21.820312 C 10.609375 -23.375 11.214844 -24.839844 12.074219 -26.222656 C 14.835938 -30.707031 18.71875 -32.949219 23.71875 -32.949219 C 26.910156 -32.949219 29.757812 -31.914062 32.257812 -29.84375 C 34.847656 -27.6875 36.398438 -25.011719 37.175781 -21.820312 Z M 37.175781 -21.820312 "/></g></g></g><g fill="#545454" fill-opacity="1"><g transform="translate(180.260991, 309.113235)"><g><path d="M 22.683594 -27.601562 C 30.273438 -25.789062 35.449219 -23.804688 38.210938 -21.5625 C 40.109375 -20.011719 41.058594 -18.027344 41.058594 -15.613281 C 41.058594 -13.195312 40.539062 -11.214844 39.503906 -9.832031 C 36.917969 -6.210938 32.257812 -4.398438 25.703125 -4.398438 C 16.5625 -4.398438 11.386719 -7.503906 10.265625 -13.714844 L 3.191406 -13.714844 C 5.261719 -3.796875 12.765625 1.121094 25.703125 1.121094 C 31.484375 1.121094 36.3125 -0.0859375 40.195312 -2.675781 C 44.851562 -5.691406 47.265625 -10.179688 47.265625 -16.042969 C 47.265625 -20.875 45.371094 -24.582031 41.574219 -27.167969 C 38.898438 -29.066406 34.585938 -30.792969 28.636719 -32.34375 C 22.597656 -33.898438 18.71875 -35.191406 16.90625 -36.140625 C 12.9375 -38.125 10.953125 -40.882812 11.039062 -44.507812 C 11.039062 -46.40625 11.386719 -48.042969 12.246094 -49.25 C 14.492188 -52.613281 18.457031 -54.339844 24.152344 -54.339844 C 32.171875 -54.339844 36.742188 -51.753906 37.953125 -46.75 L 44.507812 -46.75 C 42.351562 -55.203125 35.535156 -59.515625 24.152344 -59.515625 C 18.976562 -59.515625 14.40625 -58.136719 10.609375 -55.375 C 6.726562 -52.613281 4.742188 -48.5625 4.742188 -43.039062 C 4.742188 -35.535156 10.78125 -30.359375 22.683594 -27.601562 Z M 22.683594 -27.601562 "/></g></g></g><g fill="#545454" fill-opacity="1"><g transform="translate(229.756762, 309.113235)"><g><path d="M 12.507812 0 L 12.507812 -15.871094 C 12.507812 -21.132812 13.371094 -25.101562 15.179688 -27.859375 C 16.214844 -29.414062 17.507812 -30.535156 19.148438 -31.394531 C 20.699219 -32.257812 22.855469 -32.691406 25.445312 -32.691406 C 28.03125 -32.691406 29.84375 -31.742188 30.964844 -30.015625 C 32.085938 -28.292969 32.691406 -26.136719 32.691406 -23.71875 L 32.691406 0 L 38.726562 0 L 38.726562 -23.71875 C 38.726562 -28.117188 37.519531 -31.65625 35.277344 -34.328125 C 34.070312 -35.707031 32.691406 -36.742188 31.050781 -37.519531 C 29.328125 -38.296875 27.167969 -38.726562 24.496094 -38.726562 C 21.734375 -38.726562 19.40625 -37.953125 17.335938 -36.570312 C 15.351562 -35.277344 13.714844 -33.550781 12.507812 -31.394531 L 12.507812 -64.691406 L 6.46875 -64.691406 L 6.46875 0 Z M 12.507812 0 "/></g></g></g><g fill="#545454" fill-opacity="1"><g transform="translate(273.647622, 309.113235)"><g><path d="M 37.519531 -19.148438 C 37.519531 -15.351562 36.140625 -12.160156 33.464844 -9.488281 C 30.707031 -6.726562 27.515625 -5.433594 23.71875 -5.433594 C 19.925781 -5.433594 16.648438 -6.726562 13.972656 -9.488281 C 11.214844 -12.160156 9.917969 -15.351562 9.917969 -19.148438 C 9.917969 -22.945312 11.214844 -26.136719 13.972656 -28.894531 C 16.648438 -31.570312 19.925781 -32.949219 23.71875 -32.949219 C 27.515625 -32.949219 30.707031 -31.570312 33.464844 -28.894531 C 36.140625 -26.136719 37.519531 -22.945312 37.519531 -19.148438 Z M 43.558594 -19.148438 C 43.558594 -24.582031 41.574219 -29.238281 37.691406 -33.121094 C 33.8125 -37.003906 29.152344 -38.988281 23.71875 -38.988281 C 18.199219 -38.988281 13.542969 -37.003906 9.660156 -33.121094 C 5.777344 -29.238281 3.882812 -24.582031 3.882812 -19.148438 C 3.882812 -13.628906 5.777344 -8.96875 9.660156 -5.175781 C 13.542969 -1.292969 18.285156 0.605469 23.71875 0.605469 C 29.066406 0.605469 33.8125 -1.292969 37.691406 -5.175781 C 41.574219 -8.96875 43.558594 -13.628906 43.558594 -19.148438 Z M 43.558594 -19.148438 "/></g></g></g><g fill="#545454" fill-opacity="1"><g transform="translate(321.073876, 309.113235)"><g><path d="M 12.507812 21.5625 L 12.507812 -6.46875 C 12.765625 -5.953125 13.195312 -5.519531 13.542969 -5.175781 C 17.164062 -1.121094 21.5625 0.863281 26.824219 0.863281 C 32 0.863281 36.398438 -1.121094 40.023438 -5.175781 C 43.472656 -9.054688 45.28125 -13.628906 45.28125 -18.976562 C 45.28125 -24.238281 43.472656 -28.808594 40.023438 -32.777344 C 36.398438 -36.742188 32 -38.8125 26.824219 -38.8125 C 21.5625 -38.8125 17.164062 -36.742188 13.542969 -32.777344 C 13.195312 -32.34375 12.765625 -31.914062 12.507812 -31.394531 L 12.507812 -37.953125 L 6.46875 -37.953125 L 6.46875 21.5625 Z M 39.246094 -18.976562 C 39.246094 -15.265625 37.953125 -11.988281 35.363281 -9.316406 C 32.777344 -6.554688 29.585938 -5.175781 25.875 -5.175781 C 22.082031 -5.175781 18.890625 -6.554688 16.300781 -9.316406 C 13.714844 -11.988281 12.507812 -15.265625 12.507812 -18.976562 C 12.507812 -22.597656 13.714844 -25.875 16.300781 -28.636719 C 18.890625 -31.394531 22.082031 -32.777344 25.875 -32.777344 C 29.585938 -32.777344 32.777344 -31.394531 35.363281 -28.636719 C 37.953125 -25.875 39.246094 -22.597656 39.246094 -18.976562 Z M 39.246094 -18.976562 "/></g></g></g><g fill="#a0c3d2" fill-opacity="1"><g transform="translate(33.093835, 360.938725)"><g><path d="M 16.140625 -9.410156 C 16.140625 -6.511719 13.519531 -3.863281 10.625 -3.863281 C 7.726562 -3.863281 5.105469 -6.511719 5.105469 -9.410156 C 5.105469 -12.308594 7.726562 -14.929688 10.625 -14.929688 C 13.519531 -14.929688 16.140625 -12.308594 16.140625 -9.410156 Z M 20.28125 -9.382812 C 20.28125 -14.570312 15.8125 -19.039062 10.625 -19.039062 C 5.4375 -19.039062 0.964844 -14.570312 0.964844 -9.382812 C 0.964844 -4.195312 5.4375 0.277344 10.625 0.277344 C 15.8125 0.277344 20.28125 -4.195312 20.28125 -9.382812 Z M 20.28125 -9.382812 "/></g></g></g><g fill="#a0c3d2" fill-opacity="1"><g transform="translate(68.134189, 360.938725)"><g><path d="M 16.390625 0 L 16.390625 -18.761719 L 12.25 -18.761719 L 12.25 -7.0625 L 5.792969 -18.761719 L 1.65625 -18.761719 L 1.65625 0 L 5.792969 0 L 5.792969 -11.699219 L 12.25 0 Z M 16.390625 0 "/></g></g></g><g fill="#a0c3d2" fill-opacity="1"><g transform="translate(99.975227, 360.938725)"><g><path d="M 1.65625 0 L 12.527344 0 L 12.527344 -3.753906 L 5.792969 -3.753906 L 5.792969 -18.761719 L 1.65625 -18.761719 Z M 1.65625 0 "/></g></g></g><g fill="#a0c3d2" fill-opacity="1"><g transform="translate(127.265481, 360.938725)"><g><path d="M 5.792969 0 L 5.792969 -18.761719 L 1.65625 -18.761719 L 1.65625 0 Z M 5.792969 0 "/></g></g></g><g fill="#a0c3d2" fill-opacity="1"><g transform="translate(148.515622, 360.938725)"><g><path d="M 16.390625 0 L 16.390625 -18.761719 L 12.25 -18.761719 L 12.25 -7.0625 L 5.792969 -18.761719 L 1.65625 -18.761719 L 1.65625 0 L 5.792969 0 L 5.792969 -11.699219 L 12.25 0 Z M 16.390625 0 "/></g></g></g><g fill="#a0c3d2" fill-opacity="1"><g transform="translate(180.356656, 360.938725)"><g><path d="M 12.527344 -3.753906 L 5.792969 -3.753906 L 5.792969 -7.53125 L 12.25 -7.53125 L 12.25 -11.285156 L 5.792969 -11.285156 L 5.792969 -15.011719 L 12.527344 -15.011719 L 12.527344 -18.761719 L 1.65625 -18.761719 L 1.65625 0 L 12.527344 0 Z M 12.527344 -3.753906 "/></g></g></g><g fill="#a0c3d2" fill-opacity="1"><g transform="translate(208.336412, 360.938725)"><g/></g></g><g fill="#a0c3d2" fill-opacity="1"><g transform="translate(229.034945, 360.938725)"><g><path d="M 8.941406 -2.925781 C 6.898438 -2.925781 5.132812 -3.945312 5.023438 -6.179688 L 0.828125 -6.179688 C 0.855469 -1.601562 4.636719 0.441406 8.773438 0.441406 C 12.609375 0.441406 16.554688 -1.1875 16.554688 -5.601562 C 16.554688 -12.75 5.710938 -10.347656 5.710938 -13.6875 C 5.710938 -15.09375 7.339844 -15.644531 8.5 -15.644531 C 10.566406 -15.644531 11.699219 -15.011719 11.921875 -13.050781 L 15.921875 -13.050781 C 15.785156 -17.328125 12.308594 -19.039062 8.445312 -19.039062 C 5.023438 -19.039062 1.433594 -17.21875 1.433594 -13.355469 C 1.433594 -6.429688 12.277344 -8.773438 12.277344 -5.132812 C 12.277344 -3.449219 10.238281 -2.925781 8.941406 -2.925781 Z M 8.941406 -2.925781 "/></g></g></g><g fill="#a0c3d2" fill-opacity="1"><g transform="translate(260.214046, 360.938725)"><g><path d="M 11.976562 -18.761719 L 11.976562 -11.285156 L 5.792969 -11.285156 L 5.792969 -18.761719 L 1.65625 -18.761719 L 1.65625 0 L 5.792969 0 L 5.792969 -7.53125 L 11.976562 -7.53125 L 11.976562 0 L 16.390625 0 L 16.390625 -18.761719 Z M 11.976562 -18.761719 "/></g></g></g><g fill="#a0c3d2" fill-opacity="1"><g transform="translate(292.05508, 360.938725)"><g><path d="M 16.140625 -9.410156 C 16.140625 -6.511719 13.519531 -3.863281 10.625 -3.863281 C 7.726562 -3.863281 5.105469 -6.511719 5.105469 -9.410156 C 5.105469 -12.308594 7.726562 -14.929688 10.625 -14.929688 C 13.519531 -14.929688 16.140625 -12.308594 16.140625 -9.410156 Z M 20.28125 -9.382812 C 20.28125 -14.570312 15.8125 -19.039062 10.625 -19.039062 C 5.4375 -19.039062 0.964844 -14.570312 0.964844 -9.382812 C 0.964844 -4.195312 5.4375 0.277344 10.625 0.277344 C 15.8125 0.277344 20.28125 -4.195312 20.28125 -9.382812 Z M 20.28125 -9.382812 "/></g></g></g><g fill="#a0c3d2" fill-opacity="1"><g transform="translate(327.095446, 360.938725)"><g><path d="M 5.792969 -6.707031 L 8.691406 -6.707031 C 11.726562 -6.707031 14.429688 -8.941406 14.429688 -12.75 C 14.429688 -16.308594 11.726562 -18.761719 8.691406 -18.761719 L 1.65625 -18.761719 L 1.65625 0 L 5.792969 0 Z M 8.003906 -15.507812 C 9.214844 -15.507812 10.484375 -14.460938 10.484375 -12.75 C 10.484375 -10.953125 9.214844 -9.960938 8.003906 -9.960938 L 5.792969 -9.960938 L 5.792969 -15.507812 Z M 8.003906 -15.507812 "/></g></g></g></svg>